<svg width="26" height="22" viewBox="0 0 26 22" fill="none" xmlns="http://www.w3.org/2000/svg">
<path fill-rule="evenodd" clip-rule="evenodd" d="M6.75 11C6.75 10.8177 6.82573 10.6428 6.96052 10.5139C7.09531 10.3849 7.27813 10.3125 7.46875 10.3125H15.7962L12.7099 7.36176C12.5749 7.23267 12.4991 7.05758 12.4991 6.87501C12.4991 6.69245 12.5749 6.51736 12.7099 6.38826C12.8448 6.25917 13.0279 6.18665 13.2188 6.18665C13.4096 6.18665 13.5927 6.25917 13.7276 6.38826L18.0401 10.5133C18.1071 10.5771 18.1602 10.653 18.1964 10.7365C18.2326 10.82 18.2513 10.9096 18.2513 11C18.2513 11.0904 18.2326 11.18 18.1964 11.2635C18.1602 11.347 18.1071 11.4229 18.0401 11.4868L13.7276 15.6118C13.5927 15.7409 13.4096 15.8134 13.2188 15.8134C13.0279 15.8134 12.8448 15.7409 12.7099 15.6118C12.5749 15.4827 12.4991 15.3076 12.4991 15.125C12.4991 14.9424 12.5749 14.7674 12.7099 14.6383L15.7962 11.6875H7.46875C7.27813 11.6875 7.09531 11.6151 6.96052 11.4862C6.82573 11.3572 6.75 11.1824 6.75 11Z" fill="#8D4337"/>
</svg>
